<?xml version="1.0" encoding="utf-8"?>
<!-- Generator: Adobe Illustrator 19.2.1, SVG Export Plug-In . SVG Version: 6.00 Build 0)  -->
<svg version="1.1" id="レイヤー_1" xmlns="http://www.w3.org/2000/svg" xmlns:xlink="http://www.w3.org/1999/xlink" x="0px"
	 y="0px" viewBox="0 0 200 162.5" style="enable-background:new 0 0 200 162.5;" xml:space="preserve">
<style type="text/css">
	.st0{fill:#FFFFFF;}
</style>
<title>twitte_logo</title>
<path class="st0" d="M200,19.3c-7.5,3.3-15.5,5.5-23.6,6.5c8.6-5.1,14.9-13.2,18-22.7c-8.1,4.8-16.9,8.2-26.1,10
	c-15.6-16.5-41.6-17.2-58.1-1.5c-10.5,10-15,24.8-11.8,38.9c-33-1.7-63.7-17.3-84.5-43C3,26.3,8.6,50.2,26.6,62.3
	c-6.5-0.2-12.9-1.9-18.6-5.1c0,0.2,0,0.3,0,0.5C8,77.2,21.8,94,40.9,97.9c-6,1.6-12.4,1.9-18.5,0.7c5.4,16.7,20.8,28.1,38.3,28.5
	c-14.5,11.4-32.5,17.6-51,17.6c-3.3,0-6.5-0.2-9.8-0.6c18.8,12,40.6,18.4,62.9,18.4c75.5,0,116.7-62.5,116.7-116.7
	c0-1.8,0-3.6-0.1-5.3C187.5,34.7,194.5,27.5,200,19.3z"/>
</svg>
